<svg xmlns="http://www.w3.org/2000/svg" width="32.6" height="32.6"><circle cx="16.3" cy="16.3" r="7.3"/><path d="M6.2 17H.7c-.4 0-.7-.3-.7-.7 0-.4.3-.7.7-.7h5.5c.4 0 .7.3.7.7 0 .4-.3.7-.7.7zM32 17h-5.5c-.4 0-.7-.3-.7-.7 0-.4.3-.7.7-.7H32c.4 0 .7.3.7.7-.1.4-.4.7-.7.7zM15.7 6.2V.7c0-.4.3-.7.6-.7.4 0 .7.3.7.7v5.5c0 .4-.3.7-.7.7-.3 0-.6-.3-.6-.7zm0 25.8v-5.5c0-.4.3-.7.7-.7.4 0 .7.3.7.7V32c0 .4-.3.7-.7.7-.4-.1-.7-.4-.7-.7zm-7-22.4L4.8 5.7c-.3-.3-.3-.7 0-.9.3-.3.7-.3.9 0l3.9 3.9c.3.3.3.7 0 .9-.2.3-.6.3-.9 0zm18.2 18.3l-3.9-4c-.3-.3-.3-.7 0-.9.3-.3.7-.3.9 0l3.9 3.9c.3.3.3.7 0 .9-.2.3-.6.3-.9.1zM23 8.7l3.9-3.9c.3-.3.7-.3.9 0 .3.3.3.7 0 .9l-3.9 3.9c-.3.3-.7.3-.9 0-.2-.2-.2-.6 0-.9zM4.8 26.9L8.7 23c.3-.3.7-.3.9 0 .3.3.3.7 0 .9l-3.9 3.9c-.3.3-.7.3-.9 0-.3-.2-.3-.6 0-.9z"/></svg>